<?xml version="1.0" standalone="no"?>
<!DOCTYPE svg PUBLIC "-//W3C//DTD SVG 20010904//EN"
 "http://www.w3.org/TR/2001/REC-SVG-20010904/DTD/svg10.dtd">
<svg version="1.0" xmlns="http://www.w3.org/2000/svg"
 width="600.000000pt" height="600.000000pt" viewBox="0 0 600.000000 600.000000"
 preserveAspectRatio="xMidYMid meet">

<g transform="translate(0.000000,600.000000) scale(0.100000,-0.100000)"
fill="#000000" stroke="none">
<path d="M3025 4519 c-215 -17 -395 -52 -395 -78 0 -3 53 -5 117 -4 l118 2
-150 -18 c-340 -42 -414 -61 -529 -140 -59 -41 -68 -39 -25 5 l34 36 -50 -25
c-109 -56 -201 -142 -277 -259 -45 -68 -57 -80 -115 -108 -82 -41 -109 -78
-157 -219 -34 -99 -37 -115 -26 -136 11 -20 11 -27 0 -40 -9 -11 -16 -12 -25
-5 -8 6 -48 10 -97 8 l-83 -3 -14 -32 c-8 -18 -20 -33 -27 -33 -21 0 -24 -28
-24 -251 l0 -219 25 -12 c14 -6 25 -15 25 -19 0 -4 -30 -24 -67 -43 -38 -20
-92 -54 -121 -76 l-53 -41 -48 35 c-25 19 -59 38 -74 41 -24 6 -27 12 -27 50
0 58 -16 68 -91 63 -71 -5 -89 -21 -89 -79 0 -47 14 -58 88 -65 33 -4 64 -9
70 -13 17 -11 92 -169 82 -173 -14 -4 -30 -110 -30 -202 0 -78 0 -79 -41 -123
-22 -24 -48 -61 -56 -81 -21 -48 -43 -139 -35 -146 3 -3 26 -6 51 -6 25 0 51
-4 57 -8 6 -4 17 -60 25 -124 17 -136 22 -128 -82 -128 -38 0 -69 -4 -69 -9 0
-29 27 -72 75 -121 30 -30 78 -80 107 -110 29 -30 62 -60 73 -66 15 -8 -29
-12 -183 -17 -111 -3 -210 -11 -220 -16 -22 -13 -190 -12 1958 -13 1297 0
1836 3 1890 11 46 7 86 20 104 33 28 20 35 21 223 14 346 -13 631 14 333 31
l-106 6 23 23 c18 18 35 24 69 24 35 0 51 6 70 26 l26 25 -7 202 c-4 111 -12
208 -17 215 -6 6 -28 12 -49 12 -35 0 -41 4 -58 38 -26 52 -82 99 -126 108
-20 3 -59 3 -88 -1 -29 -3 -65 -6 -82 -6 -16 0 -59 1 -95 0 -99 -1 -118 0
-217 7 -89 6 -92 7 -103 35 -17 41 -72 86 -122 100 -24 6 -49 13 -57 15 -11 4
-12 53 -7 287 3 155 7 590 8 967 3 640 2 687 -15 718 -19 35 -76 77 -120 88
l-29 7 16 -31 c50 -97 52 -155 39 -1389 l-6 -653 -74 0 -73 0 0 342 c0 325
-14 726 -29 813 l-7 40 -326 16 c-180 8 -330 17 -332 20 -3 3 47 18 112 33 64
16 120 31 124 35 18 16 -396 -20 -587 -50 -103 -16 -209 -22 -510 -29 -623
-15 -725 -16 -725 -5 0 5 14 51 31 102 29 88 32 93 62 98 58 9 367 24 647 31
151 4 277 11 280 15 3 4 38 45 77 91 168 196 425 369 703 473 41 16 78 31 82
34 4 3 -70 4 -165 3 -95 -2 -169 -1 -166 2 3 4 79 15 169 26 90 11 165 22 168
25 8 8 -461 3 -583 -6z m-205 -1066 c-24 -232 -41 -314 -71 -347 -25 -28 -32
-31 -86 -30 -32 1 -200 5 -373 9 -288 7 -548 -1 -705 -21 -25 -4 -46 -1 -57 8
-17 12 -14 27 41 218 40 141 63 204 72 202 7 -2 26 -13 42 -24 29 -20 33 -21
515 -13 l487 7 70 53 c38 29 71 52 73 50 2 -2 -1 -52 -8 -112z m1062 59 c27
-27 39 -223 16 -255 -15 -20 -167 -52 -204 -43 -43 11 -57 48 -62 166 -4 101
-3 109 18 130 21 21 28 22 122 17 55 -3 105 -10 110 -15z m-660 -32 c15 -30
18 -64 18 -231 0 -145 -3 -200 -13 -213 -10 -14 -33 -20 -100 -25 -83 -6 -85
-6 -66 12 16 15 19 31 19 96 0 43 3 132 6 198 7 114 6 121 -15 142 -12 12 -36
24 -53 28 -29 6 -30 7 -12 20 13 10 44 13 109 11 l90 -3 17 -35z m-1745 -112
c-16 -68 -34 -127 -38 -133 -5 -5 -9 42 -9 108 0 95 -3 119 -15 123 -28 11 -4
24 44 24 l49 0 -31 -122z m1433 93 c-6 -12 -10 -100 -10 -217 0 -189 1 -199
22 -221 23 -25 13 -30 -26 -12 -42 19 -48 52 -44 241 2 146 6 178 21 201 21
32 54 39 37 8z m-462 -453 c14 -14 16 -94 3 -102 -5 -4 -7 2 -4 12 2 10 -1 30
-7 46 -10 28 -12 29 -66 23 -66 -7 -84 -19 -84 -58 0 -27 -3 -29 -35 -29 -71
0 -150 -62 -209 -162 -18 -31 -39 -51 -67 -63 -22 -10 -60 -40 -84 -67 -54
-60 -65 -100 -121 -465 -3 -20 -11 -33 -19 -33 -8 0 -15 3 -15 8 1 54 35 310
55 406 26 132 24 169 -12 180 -81 26 -409 33 -563 12 -52 -7 -96 -12 -98 -10
-6 4 27 60 44 75 16 13 16 12 5 -9 -12 -23 -12 -23 11 -8 14 9 69 19 137 25
68 6 121 16 130 24 35 30 44 29 21 -3 -22 -30 -22 -33 -4 -26 10 4 35 10 54
13 19 3 50 19 68 35 41 35 49 36 27 1 -17 -25 -17 -26 1 -18 11 4 78 14 149
21 162 16 165 16 140 2 -33 -19 -96 -70 -92 -75 3 -2 34 14 71 36 97 60 236
128 236 117 0 -3 -22 -18 -48 -34 -27 -17 -66 -45 -86 -62 -32 -29 -35 -35
-23 -49 8 -9 17 -23 20 -31 3 -9 8 -3 12 18 5 20 24 47 51 71 56 49 177 113
198 105 12 -5 16 0 16 18 0 13 7 34 16 46 13 19 24 22 88 22 43 0 77 -5 84
-12z m351 -263 c0 -160 -1 -178 -14 -161 -12 16 -15 57 -15 200 0 160 2 178
15 160 11 -15 14 -56 14 -199z m-369 34 c-24 -64 -38 -80 -125 -139 -87 -59
-355 -220 -365 -220 -5 0 -6 9 -3 20 3 11 82 73 185 146 152 107 183 133 198
167 14 32 28 45 62 58 67 28 70 26 48 -32z m-785 -89 c108 -9 131 -15 138 -34
3 -6 -8 -77 -23 -156 -16 -80 -35 -198 -44 -264 -14 -116 -20 -136 -32 -123
-8 7 8 165 37 376 14 101 17 147 10 154 -13 13 -516 16 -603 4 l-56 -8 -7
-105 c-4 -58 -4 -177 0 -265 5 -107 4 -159 -3 -159 -16 0 -26 101 -27 275 0
210 9 273 40 285 62 23 402 35 570 20z m58 -86 c3 -4 -44 -45 -106 -92 -139
-105 -270 -218 -362 -311 -61 -62 -105 -88 -105 -63 0 5 60 67 133 138 114
112 210 195 357 306 33 26 70 35 83 22z m817 -28 c0 -3 -27 -19 -59 -37 -33
-17 -67 -39 -76 -49 -15 -17 -9 -16 52 5 76 27 177 45 238 44 l40 -1 -45 -12
c-47 -14 -98 -35 -140 -59 -14 -8 -70 -24 -125 -36 -71 -15 -130 -35 -205 -72
-92 -46 -116 -64 -198 -146 -51 -51 -99 -93 -108 -93 -25 0 59 110 148 196
116 110 215 171 388 235 77 29 90 32 90 25z m770 -31 c0 -34 -1 -35 -40 -35
-39 0 -40 1 -40 35 0 34 1 35 40 35 39 0 40 -1 40 -35z m-422 -149 c31 -16 76
-92 87 -146 3 -19 9 -43 12 -54 10 -35 -17 -6 -43 47 -52 104 -118 146 -181
114 -44 -23 -99 -90 -135 -162 l-32 -65 -61 1 -60 2 47 6 c26 4 48 9 50 11 2
3 19 36 38 74 79 155 184 220 278 172z m-729 -136 l-64 -59 98 -1 c53 0 97 -2
97 -4 0 -2 -7 -20 -15 -40 l-15 -36 -125 0 c-69 0 -125 3 -125 6 0 19 187 194
208 194 3 0 -24 -27 -59 -60z m-1167 -52 l-4 -78 -34 0 c-23 0 -37 6 -41 16
-8 22 10 49 33 49 13 0 22 13 32 48 7 27 15 47 16 45 1 -1 1 -38 -2 -80z
m1851 58 c54 -20 102 -60 142 -119 45 -66 45 -83 1 -27 -68 86 -158 127 -258
116 -62 -6 -67 -3 -41 26 20 22 99 24 156 4z m-293 -63 c-1 -20 -18 -31 -57
-38 -35 -5 -43 -4 -43 8 0 10 17 18 48 25 26 5 48 10 50 11 1 0 2 -2 2 -6z
m304 -127 c72 -54 105 -185 72 -284 -18 -53 -72 -117 -113 -133 -37 -14 -101
-11 -139 7 -39 19 -90 83 -99 125 -9 38 -25 27 -25 -16 0 -31 -3 -35 -36 -41
-51 -9 -119 2 -182 31 -56 26 -68 45 -16 24 42 -16 142 -29 175 -22 28 5 29 8
29 67 1 62 15 196 26 228 4 15 -1 18 -28 19 -18 1 -46 5 -63 9 -21 5 -5 8 56
9 l87 1 -9 -37 c-14 -62 -10 -68 19 -30 35 47 67 69 111 77 49 8 95 -3 135
-34z m1829 26 c67 -73 74 -284 14 -374 -29 -42 -69 -49 -103 -17 -70 66 -72
311 -3 385 27 29 69 31 92 6z m432 -18 c35 -38 49 -89 49 -179 0 -93 -25 -162
-69 -191 -24 -16 -30 -16 -53 -3 -42 24 -67 84 -70 174 -4 95 9 152 44 195 32
37 67 39 99 4z m-3415 -8 c0 -7 -3 -28 -6 -45 l-6 -31 -273 0 c-299 0 -285 -3
-285 61 l0 29 285 0 c235 0 285 -2 285 -14z m590 7 c0 -5 -9 -51 -21 -103 -11
-52 -22 -105 -25 -117 -4 -23 -6 -23 -184 -23 -174 0 -180 1 -180 20 0 26 42
129 75 186 l26 44 154 0 c85 0 155 -3 155 -7z m-387 -50 c-15 -27 -29 -50 -31
-53 -6 -6 2 27 13 53 6 15 0 17 -53 17 l-59 0 -8 -100 c-6 -89 -9 -100 -26
-100 -16 0 -19 7 -19 48 0 26 3 77 7 115 l6 67 98 0 98 0 -26 -47z m-800 -88
c4 -51 3 -81 -2 -70 -4 11 -11 61 -14 110 -4 51 -3 81 2 70 4 -11 11 -60 14
-110z m2298 9 l-12 -54 -140 0 -139 0 1 38 c1 37 1 37 11 9 l10 -28 106 3 107
3 29 55 c34 62 44 52 27 -26z m-1787 -60 c3 -9 6 -38 6 -65 l0 -49 -215 0
-215 0 0 65 0 65 209 0 c181 0 210 -2 215 -16z m2815 -53 c-16 -100 27 -91
-440 -91 l-410 0 11 21 c7 11 12 41 12 65 l0 44 396 0 c224 0 403 4 412 9 23
15 28 5 19 -48z m-254 -231 c18 -20 17 -20 -70 -20 -87 0 -88 0 -70 20 14 15
31 20 70 20 39 0 56 -5 70 -20z m-1715 -32 c22 -18 40 -36 40 -40 0 -5 -226
-8 -502 -8 l-503 0 45 40 45 39 418 1 418 0 39 -32z"/>
<path d="M2668 1965 c-46 -46 -46 -118 0 -167 47 -51 113 -30 142 46 37 98
-72 191 -142 121z"/>
<path d="M4614 2012 c-22 -14 -34 -52 -34 -106 0 -103 43 -147 79 -79 16 31
14 129 -4 163 -16 31 -23 35 -41 22z"/>
<path d="M5014 1985 c-35 -84 7 -208 55 -161 20 20 27 127 11 166 -17 42 -47
40 -66 -5z"/>
<path d="M2103 1999 c-53 -20 -123 -86 -123 -114 0 -13 16 -15 108 -13 l107 3
6 50 c4 28 9 61 13 73 7 20 4 22 -26 21 -18 0 -56 -9 -85 -20z m52 -50 c0 -22
-4 -24 -58 -27 -39 -2 -57 0 -52 7 3 6 27 11 52 11 41 0 45 2 40 21 -3 13 -1
19 6 16 7 -2 12 -15 12 -28z"/>
<path d="M3690 4440 c-141 -35 -271 -99 -385 -190 -69 -56 -141 -127 -134
-134 3 -3 43 8 89 24 109 37 215 58 326 65 l89 6 -107 -44 c-196 -81 -381
-198 -546 -345 -40 -35 -71 -66 -70 -68 2 -1 54 6 116 16 239 41 587 45 811 9
35 -5 65 -8 66 -7 2 2 -10 102 -26 223 -45 349 -79 466 -131 464 -13 0 -57 -9
-98 -19z m130 -310 c11 -11 20 -26 20 -32 0 -7 5 -44 10 -82 17 -113 10 -120
-127 -131 -88 -7 -93 -6 -116 17 -19 19 -26 40 -31 91 -8 75 -3 102 22 112 14
6 168 41 195 44 4 1 16 -8 27 -19z"/>
<path d="M860 1950 l0 -70 40 0 c43 0 45 3 31 63 -8 33 -43 76 -63 77 -5 0 -8
-31 -8 -70z m45 -48 c-8 -8 -25 10 -25 26 0 13 2 13 14 -4 8 -10 13 -21 11
-22z"/>
</g>
</svg>
