<?xml version="1.0" standalone="no"?>
<!DOCTYPE svg PUBLIC "-//W3C//DTD SVG 20010904//EN"
 "http://www.w3.org/TR/2001/REC-SVG-20010904/DTD/svg10.dtd">
<svg version="1.0" xmlns="http://www.w3.org/2000/svg"
 width="600.000000pt" height="600.000000pt" viewBox="0 0 600.000000 600.000000"
 preserveAspectRatio="xMidYMid meet">

<g transform="translate(0.000000,600.000000) scale(0.100000,-0.100000)"
fill="#000000" stroke="none">
<path d="M3676 4319 c-151 -133 -161 -160 -154 -444 4 -188 4 -197 -10 -148
-13 48 -17 52 -41 48 -14 -3 -116 -14 -226 -25 -410 -42 -483 -51 -595 -70
-63 -11 -140 -27 -170 -35 -30 -8 -55 -13 -56 -12 -1 1 2 67 7 147 11 173 7
216 -31 295 -63 132 -121 166 -180 107 -54 -54 -62 -158 -18 -229 25 -43 30
-107 21 -278 l-8 -139 -75 -47 -75 -47 -138 -7 c-163 -9 -196 -23 -211 -90 -4
-22 -10 -45 -11 -51 -2 -6 -60 -16 -142 -23 -243 -20 -332 -50 -365 -123 -10
-21 -18 -77 -22 -153 -4 -66 -9 -159 -12 -206 l-6 -87 -108 -4 c-122 -5 -153
-18 -176 -73 -19 -47 -18 -94 6 -137 l20 -37 -22 -38 c-13 -20 -27 -62 -33
-93 -9 -45 -16 -56 -33 -58 -22 -3 -22 -4 -20 -215 l3 -212 95 4 96 3 39 -53
c22 -29 60 -69 85 -88 l45 -34 -35 8 c-68 17 -562 3 -529 -15 51 -28 591 -44
1829 -55 1603 -14 2365 -7 2544 24 85 14 38 46 -82 57 -94 8 -96 9 -78 36 29
45 46 140 46 258 0 185 -24 238 -124 275 -40 15 -54 16 -79 7 -17 -6 -31 -11
-31 -9 -9 30 -40 66 -71 82 -34 17 -64 21 -192 23 l-153 4 -2 626 -3 626 -40
28 c-67 46 -191 90 -377 132 l-28 6 0 151 c0 149 0 150 32 210 41 79 47 141
20 203 -12 25 -27 46 -34 45 -7 0 -49 -31 -92 -70z m89 -25 c9 -51 -3 -112
-34 -164 l-26 -45 -2 -965 c-1 -531 -5 -982 -8 -1003 -11 -76 -50 -129 -110
-151 -16 -6 -15 -2 7 21 15 15 37 51 50 78 23 50 23 52 26 555 2 277 1 502 -2
499 -16 -16 -36 -354 -36 -619 -1 -258 -3 -291 -15 -265 -13 30 -13 29 -15
-30 0 -33 -7 -77 -15 -98 -13 -38 -13 -38 6 -21 10 9 19 14 19 10 0 -15 -30
-62 -53 -85 -49 -45 -63 3 -24 85 l22 49 5 975 c6 1132 -4 1030 114 1143 38
37 73 67 77 67 4 0 10 -16 14 -36z m-1448 -166 c66 -72 83 -171 68 -402 -7
-111 -8 -114 -32 -121 -14 -3 -26 -5 -28 -3 -1 2 2 75 7 163 6 102 6 174 -1
198 -8 32 -7 38 6 33 17 -7 11 17 -18 75 -31 62 -44 66 -63 18 -15 -37 -15
-43 -2 -58 37 -41 46 -87 46 -244 0 -172 -5 -213 -28 -222 -13 -5 -14 15 -9
167 5 163 4 177 -19 250 -26 81 -23 110 13 150 21 24 35 23 60 -4z m1639 -447
c16 -10 15 -10 -9 -5 -43 10 -112 -5 -152 -32 -44 -30 -45 -30 -45 1 0 37 48
57 126 51 34 -2 70 -9 80 -15z m-813 -16 c-69 -15 -176 -60 -194 -81 -9 -11
-4 -11 25 1 35 15 165 45 189 45 7 0 -10 -12 -37 -26 -27 -14 -63 -35 -80 -47
-27 -19 -66 -24 -415 -53 -212 -18 -388 -30 -390 -28 -2 2 23 15 55 30 235
105 538 169 819 172 l90 0 -62 -13z m282 -105 c14 -5 28 -18 32 -27 4 -10 17
-31 30 -47 22 -27 23 -35 21 -149 -3 -114 -4 -122 -25 -133 -13 -6 -31 -18
-41 -27 -10 -10 -27 -17 -38 -18 -17 0 -16 -2 4 -11 19 -9 28 -7 53 11 38 28
59 21 59 -21 0 -48 -33 -78 -86 -78 -49 0 -74 25 -74 72 0 26 -3 28 -38 28
-21 0 -72 -11 -113 -25 -41 -14 -85 -24 -99 -22 -24 3 -24 4 7 16 141 55 153
75 153 257 0 150 1 149 -81 138 -33 -4 -49 -3 -49 5 0 15 44 24 95 19 24 -3
47 -2 52 2 18 18 101 24 138 10z m-349 -117 c-3 -10 -12 -58 -21 -108 -35
-192 -35 -192 -196 -196 -137 -3 -372 35 -365 60 3 9 13 55 22 102 l18 87 110
6 c358 19 342 17 382 41 48 29 57 30 50 8z m159 -109 c-1 -94 -16 -126 -71
-149 -62 -26 -62 -26 -43 96 23 146 20 141 71 137 l43 -3 0 -81z m-1420 29
c-8 -16 -17 -40 -20 -55 -4 -20 -11 -28 -26 -28 -19 0 -21 4 -15 33 6 30 46
77 66 77 5 0 3 -12 -5 -27z m301 0 c-20 -82 -28 -103 -38 -103 -9 0 -9 -3 0
-12 7 -7 12 -19 12 -27 0 -11 -6 -9 -23 7 -35 33 -91 52 -152 52 -59 0 -67 9
-44 53 28 54 36 57 147 57 l104 0 -6 -27z m329 -70 c-10 -48 -21 -91 -24 -95
-6 -7 -255 43 -266 54 -3 3 -1 24 6 47 14 46 -2 40 184 70 61 9 112 16 114 14
2 -1 -4 -42 -14 -90z m-464 -86 c59 -40 61 -54 44 -460 -9 -199 -20 -385 -26
-414 l-10 -51 -67 -6 c-37 -3 -217 -8 -399 -12 l-333 -6 0 38 c0 22 9 211 19
422 21 417 20 414 83 452 58 35 237 57 484 59 163 1 173 0 205 -22z m391 -81
c133 -25 313 -55 398 -67 85 -12 159 -26 165 -31 19 -17 -101 -6 -409 37 -176
25 -329 45 -341 45 -21 0 -23 -7 -34 -102 -21 -174 -29 -187 -30 -52 -1 67 -4
142 -7 168 -4 29 -3 46 4 46 5 0 120 -20 254 -44z m958 -36 c17 -40 56 -70 91
-70 20 0 29 -5 29 -16 0 -12 -6 -15 -26 -10 -15 4 -40 10 -56 13 -23 5 -35 16
-51 52 -12 25 -23 49 -25 54 -2 4 3 7 11 7 8 0 20 -14 27 -30z m-120 0 c16 -5
-11 -8 -75 -8 -64 0 -91 3 -75 8 14 4 48 8 75 8 28 0 61 -4 75 -8z m52 -36 c4
-3 8 -29 8 -58 l0 -53 -49 5 c-28 2 -72 1 -98 -4 -47 -8 -47 -8 38 -14 47 -4
91 -10 97 -14 8 -4 12 -36 12 -81 l0 -75 -57 6 c-32 3 -76 1 -98 -4 l-40 -10
47 -1 c26 -1 70 -6 98 -12 l50 -11 0 -49 0 -49 -97 -1 c-54 -1 -84 -4 -68 -6
17 -2 60 -8 98 -14 l67 -11 0 -38 c0 -35 -2 -38 -37 -44 -21 -3 -73 -6 -115
-6 l-78 0 0 64 c0 43 -4 66 -12 69 -10 3 -10 7 1 20 7 10 10 24 6 34 -6 16 -7
109 -1 303 1 52 2 55 31 62 31 7 182 1 197 -8z m176 -325 c-3 -218 -3 -221
-27 -240 -13 -10 -31 -19 -40 -19 -12 0 -10 5 9 20 l25 19 3 220 c3 188 5 221
18 221 13 0 15 -30 12 -221z m-859 -35 l-24 -26 50 8 c100 16 160 9 229 -25
35 -17 79 -48 97 -68 36 -42 84 -141 93 -193 6 -31 3 -28 -19 19 -57 122 -132
180 -234 181 -106 0 -187 -65 -254 -203 -19 -39 -37 -80 -40 -89 -6 -16 -25
-18 -213 -18 l-207 0 47 31 c25 17 51 40 57 50 9 17 22 19 122 19 127 0 140 5
185 72 61 90 72 114 72 153 0 61 -19 81 -87 91 l-58 9 75 6 c41 3 88 6 104 7
l29 2 -24 -26z m-101 -30 c16 -10 22 -24 22 -50 0 -75 -33 -97 -191 -124 -59
-10 -129 -28 -154 -39 -41 -18 -45 -18 -45 -3 0 27 13 37 50 38 19 0 62 7 95
15 l60 14 -85 3 c-46 2 -90 8 -97 14 -20 16 -15 59 9 85 19 20 31 23 102 23
62 0 77 -3 68 -12 -7 -7 -12 -26 -11 -43 0 -24 2 -26 8 -11 7 18 8 18 14 2 5
-13 14 -17 28 -13 15 4 19 2 15 -9 -3 -8 -1 -14 3 -14 22 0 28 69 9 88 -9 9
-4 12 23 12 19 0 40 -5 47 -12 15 -15 15 -51 0 -66 -7 -7 -9 -12 -6 -12 4 0
14 7 22 16 22 21 21 71 -2 83 -10 5 -81 11 -160 13 l-142 3 -31 -31 c-17 -17
-35 -47 -39 -65 -7 -32 -8 -31 -9 17 -1 54 11 73 59 94 37 15 309 3 338 -16z
m-1330 -28 c7 -4 12 -30 12 -63 0 -47 -2 -54 -17 -49 -10 4 -23 -1 -35 -14
-11 -12 -32 -20 -50 -20 -50 0 -20 -18 35 -22 l49 -3 -31 -23 -31 -23 -34 26
c-32 24 -34 25 -39 6 -12 -47 38 -91 107 -91 31 0 37 -3 32 -16 -3 -9 -6 -19
-6 -24 0 -5 -12 -22 -26 -39 -25 -31 -27 -31 -119 -31 l-93 0 5 48 c4 39 24
100 60 180 3 6 -1 12 -8 12 -39 0 -63 66 -39 111 9 15 22 19 69 19 32 0 60 -3
63 -6 4 -3 0 -17 -8 -32 -13 -25 -12 -27 9 -36 12 -5 28 -8 34 -7 8 1 10 -5 7
-16 -5 -16 -4 -16 10 1 50 61 -22 127 -122 111 -29 -5 -34 -4 -22 5 16 12 167
9 188 -4z m2951 -183 l1 -143 -94 0 c-53 0 -98 4 -101 10 -4 6 11 10 38 10 24
0 65 3 91 6 l46 7 1 146 c0 91 4 138 9 126 5 -11 9 -84 9 -162z m-1265 65 c23
-7 59 -30 82 -53 149 -149 145 -458 -7 -600 -26 -25 -52 -45 -58 -45 -5 0 -18
-3 -28 -6 -10 -3 -1 4 20 16 75 42 135 157 144 277 13 161 -51 314 -151 362
-102 50 -200 4 -267 -125 -12 -24 -17 -29 -13 -14 18 73 96 162 160 185 49 18
67 18 118 3z m-32 -143 c25 -17 47 -47 69 -91 29 -59 33 -76 33 -148 -1 -61
-6 -93 -23 -132 -57 -130 -171 -172 -263 -97 -34 29 -28 16 21 -42 l26 -30
-32 29 c-97 88 -133 299 -71 421 42 81 87 114 158 115 32 0 56 -7 82 -25z
m513 -52 l77 -6 -5 -34 c-4 -19 -12 -41 -18 -50 -35 -41 -139 -62 -245 -48
l-54 6 19 25 c11 14 23 45 27 70 l6 44 58 0 c31 0 92 -3 135 -7z m1134 -47
c10 -11 9 -26 -3 -67 -9 -29 -21 -104 -28 -166 l-12 -113 -48 0 -48 0 0 68 1
67 19 -37 c11 -20 24 -39 28 -42 5 -3 12 36 15 87 3 51 13 114 21 142 8 27 13
51 11 53 -2 3 -17 -9 -32 -27 l-27 -31 -108 0 c-60 0 -108 3 -108 8 0 4 9 18
19 31 22 29 68 38 202 40 64 1 90 -3 98 -13z m-1989 -206 l0 -160 -142 0 c-79
0 -439 -3 -800 -7 l-658 -6 0 151 c0 84 3 152 8 153 23 3 1155 26 1355 27
l237 2 0 -160z m1581 119 c52 -59 64 -163 26 -220 -27 -40 -52 -45 -265 -48
l-134 -2 25 33 c30 40 47 97 47 161 0 40 3 47 19 47 28 0 46 -92 32 -158 -12
-58 -8 -64 16 -20 13 24 18 55 18 115 0 45 2 78 5 73 3 -5 25 -10 49 -12 40
-3 46 -7 65 -43 13 -25 20 -59 20 -92 0 -35 4 -49 10 -43 13 13 14 136 2 170
-7 20 -6 23 5 13 7 -7 24 -13 36 -13 20 0 22 3 14 19 -6 10 -26 26 -46 35 -44
21 -45 27 -2 20 18 -3 43 -19 58 -35z m542 -84 c13 -39 17 -73 14 -155 -4
-114 -22 -170 -56 -170 -24 0 -35 28 -19 47 6 8 15 40 19 71 4 31 13 58 18 60
14 5 14 52 0 108 -13 50 -24 61 -44 44 -20 -16 -19 0 1 28 24 35 47 23 67 -33z
m215 2 c32 -67 22 -255 -15 -293 -14 -14 -17 -14 -32 0 -13 14 -14 20 -3 37 7
11 16 43 19 70 3 26 10 46 14 43 15 -9 10 74 -6 113 -13 30 -17 34 -31 23 -13
-12 -14 -10 -3 14 15 33 39 30 57 -7z m-1348 -47 l0 -69 -47 -28 -48 -28 123
-3 122 -3 0 -24 0 -25 -125 0 c-117 0 -125 1 -125 20 0 16 -9 20 -60 26 -68 8
-66 2 -53 137 l6 67 103 0 104 0 0 -70z m1064 -46 c9 -8 16 -29 16 -45 l0 -29
-20 20 c-11 11 -20 31 -20 45 0 29 3 30 24 9z m246 -40 c0 -7 -4 -16 -10 -19
-5 -3 -10 1 -10 9 0 9 -4 16 -10 16 -5 0 -10 12 -10 28 l1 27 19 -24 c11 -13
20 -29 20 -37z m-1537 -157 c5 -21 24 -53 42 -72 l32 -35 -231 0 -231 0 37 25
c20 13 51 47 69 75 l33 51 120 -3 120 -3 9 -38z m888 33 c22 0 28 -6 33 -33 3
-18 15 -51 26 -72 11 -21 18 -41 15 -43 -2 -2 -67 -1 -144 3 l-139 7 32 52
c36 55 99 99 131 91 11 -2 32 -5 46 -5z m-1783 -62 c20 -22 49 -49 65 -58 27
-17 24 -17 -109 -23 -76 -4 -277 -7 -448 -7 -310 1 -311 1 -276 20 20 10 54
39 75 63 l40 45 308 1 307 1 38 -42z"/>
<path d="M3686 4210 c-82 -93 -86 -113 -85 -478 l1 -317 24 100 c21 90 24 122
24 327 0 198 2 227 15 222 10 -4 15 0 15 14 0 10 14 36 30 57 23 29 30 48 30
81 0 24 -2 44 -4 44 -2 0 -25 -23 -50 -50z"/>
<path d="M3316 3534 c-13 -13 -16 -43 -16 -173 0 -109 -4 -161 -12 -169 -9 -9
3 -12 54 -12 37 0 70 5 73 10 3 6 -4 10 -18 10 -46 0 -57 27 -57 143 0 118 8
152 40 160 17 4 24 -1 35 -26 l14 -32 1 41 c0 22 -5 45 -12 52 -17 17 -84 15
-102 -4z"/>
<path d="M3387 3093 c7 -19 40 -25 63 -13 32 17 23 27 -24 26 -30 -1 -42 -5
-39 -13z"/>
<path d="M1475 3184 c-162 -19 -190 -32 -214 -99 l-11 -30 21 28 c35 45 74 58
269 87 144 22 171 28 120 28 -36 0 -119 -6 -185 -14z"/>
<path d="M1809 3107 c0 -6 -8 -180 -17 -386 l-17 -373 49 6 c49 5 79 24 99 61
14 25 47 622 36 652 -11 29 -40 44 -100 49 -34 2 -49 0 -50 -9z"/>
<path d="M1620 3080 c0 -14 -7 -160 -15 -325 -8 -165 -15 -325 -15 -355 l0
-55 75 3 c68 3 75 6 79 25 3 12 10 166 16 342 6 176 13 337 15 358 l5 37 -80
-2 c-78 -3 -80 -4 -80 -28z"/>
<path d="M1449 3060 c0 -19 -8 -188 -17 -375 l-17 -341 60 4 c33 2 65 5 71 7
7 2 15 100 23 277 6 150 14 316 18 369 l6 96 -72 -1 -71 -1 -1 -35z"/>
<path d="M1361 3080 c-83 -13 -83 -13 -102 -433 -11 -243 -11 -258 6 -277 25
-27 115 -29 116 -2 0 9 8 172 18 362 10 190 15 348 12 351 -3 3 -26 2 -50 -1z"/>
<path d="M3190 3015 c0 -32 2 -35 30 -35 26 0 30 3 30 29 0 28 -14 41 -46 41
-9 0 -14 -11 -14 -35z"/>
<path d="M3190 2845 c0 -54 0 -55 30 -55 29 0 30 1 30 49 0 42 -3 49 -22 55
-37 10 -38 8 -38 -49z"/>
<path d="M3190 2685 c0 -32 2 -35 30 -35 25 0 30 4 30 25 0 18 -7 28 -26 35
-35 14 -34 14 -34 -25z"/>
<path d="M3190 2563 c0 -21 4 -24 28 -21 15 2 27 9 27 17 0 8 -12 18 -27 22
-25 6 -28 5 -28 -18z"/>
<path d="M2162 2618 c-7 -7 -12 -26 -11 -42 0 -25 2 -27 8 -12 7 18 8 18 14 2
5 -13 14 -17 28 -13 16 4 19 2 15 -10 -5 -13 -4 -14 9 -3 30 25 10 90 -28 90
-13 0 -28 -5 -35 -12z"/>
<path d="M2730 2350 c0 -11 5 -20 10 -20 6 0 10 9 10 20 0 11 -4 20 -10 20 -5
0 -10 -9 -10 -20z"/>
<path d="M2642 2326 c1 -10 8 -17 13 -17 15 1 12 24 -3 29 -9 3 -13 -2 -10
-12z"/>
<path d="M2679 2293 c-41 -34 -59 -79 -59 -143 0 -57 27 -120 62 -144 12 -9
41 -16 63 -16 33 0 47 6 71 32 l29 32 -29 -22 c-58 -44 -120 -22 -152 54 -20
48 -17 93 9 144 36 73 97 90 146 41 18 -18 18 -18 17 10 -1 30 -16 53 -16 25
0 -16 -2 -16 -22 -2 -35 24 -82 20 -119 -11z"/>
<path d="M2575 2250 c-9 -15 4 -30 26 -30 22 0 24 11 7 28 -15 15 -25 15 -33
2z"/>
<path d="M2866 2191 c-4 -7 -5 -15 -2 -18 9 -9 19 4 14 18 -4 11 -6 11 -12 0z"/>
<path d="M2563 2114 c-3 -8 -1 -20 5 -26 15 -15 43 8 35 28 -7 19 -32 18 -40
-2z"/>
<path d="M2850 2055 c0 -8 5 -15 10 -15 6 0 10 7 10 15 0 8 -4 15 -10 15 -5 0
-10 -7 -10 -15z"/>
<path d="M2610 1989 c0 -25 33 -22 38 4 2 12 -3 17 -17 17 -15 0 -21 -6 -21
-21z"/>
<path d="M2794 1976 c-8 -22 3 -33 18 -18 9 9 9 15 0 24 -9 9 -13 7 -18 -6z"/>
<path d="M2704 1949 c-3 -6 -1 -16 5 -22 9 -9 14 -8 21 3 9 15 4 30 -10 30 -5
0 -12 -5 -16 -11z"/>
<path d="M3130 2215 c-11 -13 -1 -15 83 -15 72 0 98 4 107 15 11 13 1 15 -83
15 -72 0 -98 -4 -107 -15z"/>
<path d="M2203 2154 c52 -27 66 -46 48 -68 -18 -22 -137 -66 -231 -86 l-85
-19 208 0 207 -1 0 100 0 100 -97 0 -98 -1 48 -25z"/>
<path d="M930 2065 l0 -85 119 0 c66 0 126 -3 135 -6 9 -3 16 -2 16 4 0 5 -18
12 -39 16 -22 3 -67 18 -100 32 -51 22 -61 31 -61 51 0 19 10 29 53 48 l52 24
-87 0 -88 1 0 -85z"/>
<path d="M3740 1965 c-19 -20 -20 -25 -7 -25 9 0 21 9 27 21 17 31 7 33 -20 4z"/>
<path d="M4045 1980 c-3 -5 -17 -10 -30 -10 -12 0 -26 -7 -29 -16 -9 -25 44
-13 62 14 8 12 12 22 9 22 -3 0 -9 -4 -12 -10z"/>
<path d="M3878 1972 c-38 -2 -58 -8 -62 -17 -4 -12 6 -15 55 -15 44 0 61 4 66
15 7 21 7 20 -59 17z"/>
<path d="M3260 2025 c0 -36 4 -65 8 -65 5 0 34 10 66 23 l57 23 -60 42 c-32
23 -62 42 -65 42 -3 0 -6 -29 -6 -65z"/>
</g>
</svg>
